<svg width="96" height="96" viewBox="0 0 96 96" fill="none" xmlns="http://www.w3.org/2000/svg">
<rect width="96" height="96" fill="#222222"/>
<path d="M8.618 76.18C8.03 76.18 7.502 76.06 7.034 75.82C6.566 75.568 6.2 75.226 5.936 74.794C5.672 74.35 5.54 73.858 5.54 73.318C5.54 72.394 5.906 71.686 6.638 71.194C7.37 70.702 8.414 70.456 9.77 70.456H11.174V70.078C11.174 69.598 11.03 69.232 10.742 68.98C10.466 68.716 10.07 68.584 9.554 68.584C9.014 68.584 8.498 68.68 8.006 68.872C7.514 69.064 7.112 69.328 6.8 69.664L5.792 68.332C6.284 67.864 6.866 67.498 7.538 67.234C8.21 66.958 8.906 66.82 9.626 66.82C10.826 66.82 11.768 67.102 12.452 67.666C13.136 68.23 13.478 69.01 13.478 70.006V74.11C13.478 74.386 13.496 74.71 13.532 75.082C13.58 75.454 13.634 75.76 13.694 76H11.66C11.588 75.844 11.534 75.694 11.498 75.55C11.462 75.394 11.432 75.184 11.408 74.92H11.372C10.688 75.76 9.77 76.18 8.618 76.18ZM9.176 74.452C9.752 74.452 10.226 74.308 10.598 74.02C10.982 73.72 11.174 73.342 11.174 72.886V71.986H9.698C9.086 71.986 8.612 72.1 8.276 72.328C7.952 72.556 7.79 72.886 7.79 73.318C7.79 73.678 7.91 73.96 8.15 74.164C8.402 74.356 8.744 74.452 9.176 74.452ZM17.1553 76.162C16.7113 76.162 16.3453 76.018 16.0573 75.73C15.7693 75.442 15.6253 75.076 15.6253 74.632C15.6253 74.176 15.7693 73.804 16.0573 73.516C16.3453 73.228 16.7113 73.084 17.1553 73.084C17.5993 73.084 17.9593 73.228 18.2353 73.516C18.5233 73.804 18.6673 74.176 18.6673 74.632C18.6673 75.076 18.5233 75.442 18.2353 75.73C17.9593 76.018 17.5993 76.162 17.1553 76.162ZM24.5536 76.18C23.6296 76.18 22.9096 75.928 22.3936 75.424C21.8776 74.92 21.6196 74.212 21.6196 73.3V68.71H19.9816V67H21.6196V64.678L23.8516 64.03H23.9236V67H26.5336V68.71H23.9236V72.958C23.9236 73.474 24.0436 73.852 24.2836 74.092C24.5236 74.332 24.8896 74.452 25.3816 74.452C25.8496 74.452 26.2876 74.38 26.6956 74.236L26.8036 75.802C26.2636 76.054 25.5136 76.18 24.5536 76.18ZM28.1882 62.644H30.4922V68.062C30.7682 67.678 31.1522 67.378 31.6442 67.162C32.1482 66.934 32.6942 66.82 33.2822 66.82C34.3022 66.82 35.1182 67.156 35.7302 67.828C36.3542 68.5 36.6662 69.424 36.6662 70.6V76H34.3622V70.762C34.3622 70.066 34.2122 69.52 33.9122 69.124C33.6122 68.728 33.1982 68.53 32.6702 68.53C32.0102 68.53 31.4822 68.764 31.0862 69.232C30.6902 69.688 30.4922 70.312 30.4922 71.104V76H28.1882V62.644ZM6.809 88.09C6.515 88.09 6.251 88.03 6.017 87.91C5.783 87.784 5.6 87.613 5.468 87.397C5.336 87.175 5.27 86.929 5.27 86.659C5.27 86.197 5.453 85.843 5.819 85.597C6.185 85.351 6.707 85.228 7.385 85.228H8.087V85.039C8.087 84.799 8.015 84.616 7.871 84.49C7.733 84.358 7.535 84.292 7.277 84.292C7.007 84.292 6.749 84.34 6.503 84.436C6.257 84.532 6.056 84.664 5.9 84.832L5.396 84.166C5.642 83.932 5.933 83.749 6.269 83.617C6.605 83.479 6.953 83.41 7.313 83.41C7.913 83.41 8.384 83.551 8.726 83.833C9.068 84.115 9.239 84.505 9.239 85.003V87.055C9.239 87.193 9.248 87.355 9.266 87.541C9.29 87.727 9.317 87.88 9.347 88H8.33C8.294 87.922 8.267 87.847 8.249 87.775C8.231 87.697 8.216 87.592 8.204 87.46H8.186C7.844 87.88 7.385 88.09 6.809 88.09ZM7.088 87.226C7.376 87.226 7.613 87.154 7.799 87.01C7.991 86.86 8.087 86.671 8.087 86.443V85.993H7.349C7.043 85.993 6.806 86.05 6.638 86.164C6.476 86.278 6.395 86.443 6.395 86.659C6.395 86.839 6.455 86.98 6.575 87.082C6.701 87.178 6.872 87.226 7.088 87.226ZM10.6007 84.283H9.86267V83.5H10.6007V82.96C10.6007 82.522 10.7387 82.177 11.0147 81.925C11.2907 81.673 11.6687 81.547 12.1487 81.547C12.3707 81.547 12.5777 81.583 12.7697 81.655C12.9617 81.721 13.1177 81.814 13.2377 81.934L12.8417 82.618C12.7697 82.552 12.6857 82.501 12.5897 82.465C12.4937 82.429 12.3977 82.411 12.3017 82.411C12.1277 82.411 11.9897 82.468 11.8877 82.582C11.7917 82.696 11.7437 82.852 11.7437 83.05V83.5H13.0127V84.283H11.7437V88H10.6007V84.283ZM15.5503 88.09C15.0883 88.09 14.7283 87.964 14.4703 87.712C14.2123 87.46 14.0833 87.106 14.0833 86.65V84.355H13.2643V83.5H14.0833V82.339L15.1993 82.015H15.2353V83.5H16.5403V84.355H15.2353V86.479C15.2353 86.737 15.2953 86.926 15.4153 87.046C15.5353 87.166 15.7183 87.226 15.9643 87.226C16.1983 87.226 16.4173 87.19 16.6213 87.118L16.6753 87.901C16.4053 88.027 16.0303 88.09 15.5503 88.09ZM21.5345 86.173H18.4025C18.4985 86.809 18.8675 87.127 19.5095 87.127C19.7735 87.127 20.0015 87.082 20.1935 86.992C20.3915 86.902 20.5835 86.752 20.7695 86.542L21.3905 87.136C21.2165 87.424 20.9525 87.655 20.5985 87.829C20.2505 88.003 19.8665 88.09 19.4465 88.09C18.7445 88.09 18.1985 87.886 17.8085 87.478C17.4185 87.064 17.2235 86.494 17.2235 85.768C17.2235 85.036 17.4185 84.46 17.8085 84.04C18.2045 83.62 18.7475 83.41 19.4375 83.41C20.0975 83.41 20.6105 83.617 20.9765 84.031C21.3485 84.445 21.5345 85.021 21.5345 85.759V86.173ZM20.4095 85.336C20.4095 85.03 20.3195 84.79 20.1395 84.616C19.9655 84.436 19.7225 84.346 19.4105 84.346C19.1285 84.346 18.9005 84.439 18.7265 84.625C18.5525 84.805 18.4415 85.06 18.3935 85.39H20.4095V85.336ZM22.2995 84.598C22.2995 84.088 22.2905 83.722 22.2725 83.5H23.3615C23.3855 83.734 23.3975 83.998 23.3975 84.292V84.382H23.4335C23.5475 84.088 23.7485 83.854 24.0365 83.68C24.3245 83.5 24.6545 83.41 25.0265 83.41C25.0985 83.41 25.1885 83.419 25.2965 83.437V84.346C25.2725 84.334 25.2005 84.328 25.0805 84.328C24.7925 84.328 24.5225 84.406 24.2705 84.562C24.0245 84.718 23.8265 84.928 23.6765 85.192C23.5265 85.45 23.4515 85.729 23.4515 86.029V88H22.2995V84.598ZM29.8852 88.09C29.4232 88.09 29.0632 87.964 28.8052 87.712C28.5472 87.46 28.4182 87.106 28.4182 86.65V84.355H27.5992V83.5H28.4182V82.339L29.5342 82.015H29.5702V83.5H30.8752V84.355H29.5702V86.479C29.5702 86.737 29.6302 86.926 29.7502 87.046C29.8702 87.166 30.0532 87.226 30.2992 87.226C30.5332 87.226 30.7522 87.19 30.9562 87.118L31.0102 87.901C30.7402 88.027 30.3652 88.09 29.8852 88.09ZM31.7025 81.322H32.8545V84.031C32.9925 83.839 33.1845 83.689 33.4305 83.581C33.6825 83.467 33.9555 83.41 34.2495 83.41C34.7595 83.41 35.1675 83.578 35.4735 83.914C35.7855 84.25 35.9415 84.712 35.9415 85.3V88H34.7895V85.381C34.7895 85.033 34.7145 84.76 34.5645 84.562C34.4145 84.364 34.2075 84.265 33.9435 84.265C33.6135 84.265 33.3495 84.382 33.1515 84.616C32.9535 84.844 32.8545 85.156 32.8545 85.552V88H31.7025V81.322ZM38.384 88.09C37.868 88.09 37.475 87.916 37.205 87.568C36.941 87.22 36.809 86.71 36.809 86.038V83.5H37.961V86.047C37.961 86.431 38.024 86.713 38.15 86.893C38.276 87.073 38.471 87.163 38.735 87.163C39.053 87.163 39.314 87.043 39.518 86.803C39.722 86.557 39.824 86.254 39.824 85.894V83.5H40.976V86.857C40.976 87.163 41 87.544 41.048 88H39.959C39.911 87.73 39.884 87.466 39.878 87.208H39.86C39.752 87.478 39.563 87.694 39.293 87.856C39.029 88.012 38.726 88.09 38.384 88.09ZM41.9079 84.598C41.9079 84.088 41.8989 83.722 41.8809 83.5H42.9699C42.9939 83.734 43.0059 83.998 43.0059 84.292V84.382H43.0419C43.1559 84.088 43.3569 83.854 43.6449 83.68C43.9329 83.5 44.2629 83.41 44.6349 83.41C44.7069 83.41 44.7969 83.419 44.9049 83.437V84.346C44.8809 84.334 44.8089 84.328 44.6889 84.328C44.4009 84.328 44.1309 84.406 43.8789 84.562C43.6329 84.718 43.4349 84.928 43.2849 85.192C43.1349 85.45 43.0599 85.729 43.0599 86.029V88H41.9079V84.598ZM46.898 88.09C46.508 88.09 46.163 88.012 45.863 87.856C45.569 87.7 45.362 87.493 45.242 87.235L45.953 86.74C46.061 86.89 46.199 87.01 46.367 87.1C46.535 87.19 46.706 87.235 46.88 87.235C47.084 87.235 47.252 87.184 47.384 87.082C47.516 86.974 47.582 86.842 47.582 86.686C47.582 86.56 47.534 86.461 47.438 86.389C47.342 86.311 47.138 86.212 46.826 86.092C46.28 85.882 45.896 85.669 45.674 85.453C45.452 85.237 45.341 84.97 45.341 84.652C45.341 84.28 45.491 83.98 45.791 83.752C46.097 83.524 46.502 83.41 47.006 83.41C47.342 83.41 47.645 83.476 47.915 83.608C48.185 83.734 48.404 83.917 48.572 84.157L47.906 84.652C47.696 84.394 47.411 84.265 47.051 84.265C46.871 84.265 46.73 84.298 46.628 84.364C46.532 84.424 46.484 84.514 46.484 84.634C46.484 84.718 46.505 84.787 46.547 84.841C46.589 84.895 46.67 84.952 46.79 85.012C46.91 85.072 47.102 85.153 47.366 85.255C47.72 85.393 47.993 85.528 48.185 85.66C48.383 85.786 48.521 85.927 48.599 86.083C48.683 86.233 48.725 86.416 48.725 86.632C48.725 86.92 48.647 87.175 48.491 87.397C48.341 87.613 48.128 87.784 47.852 87.91C47.576 88.03 47.258 88.09 46.898 88.09ZM51.1137 88.09C50.5257 88.09 50.0607 87.877 49.7187 87.451C49.3827 87.019 49.2147 86.428 49.2147 85.678C49.2147 85.222 49.2927 84.823 49.4487 84.481C49.6047 84.139 49.8267 83.875 50.1147 83.689C50.4087 83.503 50.7507 83.41 51.1407 83.41C51.4047 83.41 51.6357 83.455 51.8337 83.545C52.0377 83.635 52.2147 83.773 52.3647 83.959H52.3827V81.322H53.5257V86.803C53.5257 87.427 53.5347 87.826 53.5527 88H52.4727C52.4667 87.898 52.4637 87.7 52.4637 87.406H52.4457C52.3077 87.61 52.1157 87.775 51.8697 87.901C51.6297 88.027 51.3777 88.09 51.1137 88.09ZM51.3387 87.208C51.6567 87.208 51.9087 87.118 52.0947 86.938C52.2867 86.752 52.3827 86.509 52.3827 86.209V85.282C52.3827 84.988 52.2837 84.745 52.0857 84.553C51.8877 84.361 51.6387 84.265 51.3387 84.265C51.0207 84.265 50.7777 84.388 50.6097 84.634C50.4417 84.88 50.3577 85.234 50.3577 85.696C50.3577 86.182 50.4417 86.557 50.6097 86.821C50.7777 87.079 51.0207 87.208 51.3387 87.208ZM55.7992 88.09C55.5052 88.09 55.2412 88.03 55.0072 87.91C54.7732 87.784 54.5902 87.613 54.4582 87.397C54.3262 87.175 54.2602 86.929 54.2602 86.659C54.2602 86.197 54.4432 85.843 54.8092 85.597C55.1752 85.351 55.6972 85.228 56.3752 85.228H57.0772V85.039C57.0772 84.799 57.0052 84.616 56.8612 84.49C56.7232 84.358 56.5252 84.292 56.2672 84.292C55.9972 84.292 55.7392 84.34 55.4932 84.436C55.2472 84.532 55.0462 84.664 54.8902 84.832L54.3862 84.166C54.6322 83.932 54.9232 83.749 55.2592 83.617C55.5952 83.479 55.9432 83.41 56.3032 83.41C56.9032 83.41 57.3742 83.551 57.7162 83.833C58.0582 84.115 58.2292 84.505 58.2292 85.003V87.055C58.2292 87.193 58.2382 87.355 58.2562 87.541C58.2802 87.727 58.3072 87.88 58.3372 88H57.3202C57.2842 87.922 57.2572 87.847 57.2392 87.775C57.2212 87.697 57.2062 87.592 57.1942 87.46H57.1762C56.8342 87.88 56.3752 88.09 55.7992 88.09ZM56.0782 87.226C56.3662 87.226 56.6032 87.154 56.7892 87.01C56.9812 86.86 57.0772 86.671 57.0772 86.443V85.993H56.3392C56.0332 85.993 55.7962 86.05 55.6282 86.164C55.4662 86.278 55.3852 86.443 55.3852 86.659C55.3852 86.839 55.4452 86.98 55.5652 87.082C55.6912 87.178 55.8622 87.226 56.0782 87.226ZM63.1819 83.5L61.4629 88.207C61.2769 88.711 61.0189 89.089 60.6889 89.341C60.3649 89.599 59.9749 89.728 59.5189 89.728C59.2789 89.728 59.0329 89.695 58.7809 89.629V88.72C58.8529 88.744 58.9429 88.765 59.0509 88.783C59.1589 88.801 59.2549 88.81 59.3389 88.81C59.6029 88.81 59.8279 88.717 60.0139 88.531C60.2059 88.351 60.3769 88.063 60.5269 87.667L58.8529 83.5H60.0769L61.0669 86.38L61.9579 83.5H63.1819ZM64.2515 88.081C64.0295 88.081 63.8465 88.009 63.7025 87.865C63.5585 87.721 63.4865 87.538 63.4865 87.316C63.4865 87.088 63.5585 86.902 63.7025 86.758C63.8465 86.614 64.0295 86.542 64.2515 86.542C64.4735 86.542 64.6535 86.614 64.7915 86.758C64.9355 86.902 65.0075 87.088 65.0075 87.316C65.0075 87.538 64.9355 87.721 64.7915 87.865C64.6535 88.009 64.4735 88.081 64.2515 88.081Z" fill="#FAFAFA"/>
<path d="M19.7656 70.6H37.5302V71.5H19.7656V70.6Z" fill="#FAFAFA"/>
</svg>
